<svg width="592" height="152" viewBox="0 0 592 152" fill="none" xmlns="http://www.w3.org/2000/svg">
<g clip-path="url(#clip0_13331_60743)">
<path d="M185.693 0L82.6682 120.37L60.7327 22.3168C57.6761 9.31329 45.9892 0 32.1447 0H0.5L34.6618 152H55.6984H89.8602L219.855 0H185.693Z" fill="white"/>
<path d="M323.24 17.2208H417.095L421.949 0H299.866C250.061 0 206.55 33.2116 194.503 80.4809L176.344 152H231.003L249.882 89.4428H354.345L359.2 72.222H255.096L257.074 65.896C265.524 36.9017 292.494 17.2208 323.24 17.2208Z" fill="white"/>
<path d="M591.5 0.527344H538.46H429.142L424.287 18.2753H525.334L427.164 151.824H465.281C474.631 151.824 483.441 147.431 489.015 139.875L578.375 18.0996L591.5 0.527344Z" fill="white"/>
</g>
<defs>
<clipPath id="clip0_13331_60743">
<rect width="591" height="152" fill="white" transform="translate(0.5)"/>
</clipPath>
</defs>
</svg>
